<?xml version="1.0" encoding="UTF-8"?><svg id="a" xmlns="http://www.w3.org/2000/svg" viewBox="0 0 431.96 346.79"><defs><style>.g{fill:#7899cf;}.h{fill:none;stroke:#fff;stroke-miterlimit:10;stroke-width:3px;}.i{fill:#5f77ba;}.j{fill:#6783c1;}</style></defs><g id="b"><polygon class="i" points="331.33 185.83 255.83 270.41 431.96 345.73 331.33 185.83"/></g><g id="c"><polygon class="g" points="214.46 .13 201.56 144.13 331.33 185.83 214.46 .13"/></g><g id="d"><polyline class="j" points="201.56 144.13 255.83 270.41 331.33 185.83 201.56 144.13"/></g><g id="e"><polygon class="i" points="201.56 144.13 1.06 345.73 255.83 270.41 201.56 144.13"/></g><g id="f"><polygon class="j" points="214.46 .13 201.56 144.13 1.06 345.73 214.46 .13"/></g><line class="h" x1="214.46" y1=".13" x2="201.56" y2="144.13"/><line class="h" x1="331.33" y1="185.83" x2="201.56" y2="144.13"/><line class="h" x1="1.06" y1="345.73" x2="201.56" y2="144.13"/><line class="h" x1="255.83" y1="270.41" x2="201.56" y2="144.13"/><line class="h" x1="331.33" y1="185.83" x2="255.83" y2="270.41"/></svg>