<?xml version="1.0" encoding="UTF-8"?><svg xmlns="http://www.w3.org/2000/svg" xmlns:xlink="http://www.w3.org/1999/xlink" viewBox="0 0 323.91 351.43"><defs><style>.ah{fill:#7899cf;}.ai{fill:url(#o);}.ai,.aj,.ak,.al,.am,.an,.ao,.ap,.aq,.ar,.as,.at,.au,.av,.aw,.ax,.ay,.b`,.ba,.bb,.bc,.bd,.be,.bf,.bg,.bh,.bi,.bj{mix-blend-mode:screen;}.aj{fill:url(#u);}.ak{fill:url(#aa);}.al{fill:url(#k);}.al,.ap,.av,.aw,.b`,.bc,.bd,.bf,.bg{opacity:.5;}.bk{isolation:isolate;}.am{fill:url(#ag);}.an{fill:url(#ab);}.an,.ao,.aq,.ar,.ax,.ay,.ba,.bb,.be{opacity:.15;}.ao{fill:url(#j);}.ap{fill:url(#n);}.aq{fill:url(#s);}.ar{fill:url(#v);}.bl{stroke-width:3px;}.bl,.as{stroke:#fff;}.bl,.as,.bm{stroke-miterlimit:10;}.bl,.as,.bn{fill:none;}.bo{fill:#5f77ba;}.as{opacity:.03;stroke-width:2px;}.at{fill:url(#x);}.au{fill:url(#l);}.bm{fill:#1f2340;opacity:.76;stroke:#5f77ba;stroke-width:6px;}.av{fill:url(#w);}.aw{fill:url(#t);}.ax{fill:url(#p);}.bp{fill:#6783c1;}.ay{fill:url(#ae);}.b`{fill:url(#af);}.ba{fill:url(#g);}.bb{fill:url(#y);}.bc{fill:url(#h);}.bd{fill:url(#ac);}.be{fill:url(#m);}.bf{fill:url(#a`);}.bg{fill:url(#q);}.bh{fill:url(#ad);}.bi{fill:url(#i);}.bj{fill:url(#r);}</style><radialGradient id="g" cx="62.91" cy="329.97" fx="62.91" fy="329.97" r="3.3" gradientTransform="matrix(1, 0, 0, 1, 0, 0)" gradientUnits="userSpaceOnUse"><stop offset="0" stop-color="#230000"/><stop offset=".73" stop-color="#93432a"/><stop offset="1" stop-color="#230000"/></radialGradient><radialGradient id="h" cx="62.91" cy="329.97" fx="62.91" fy="329.97" r="1.65" gradientTransform="matrix(1, 0, 0, 1, 0, 0)" gradientUnits="userSpaceOnUse"><stop offset=".15" stop-color="#fff"/><stop offset=".21" stop-color="#e1d0d1"/><stop offset=".29" stop-color="#bf9a9c"/><stop offset=".36" stop-color="#a67275"/><stop offset=".42" stop-color="#96595d"/><stop offset=".45" stop-color="#915155"/><stop offset=".56" stop-color="#6b3538"/><stop offset=".68" stop-color="#441819"/><stop offset=".79" stop-color="#2b0606"/><stop offset=".85" stop-color="#230000"/><stop offset=".86" stop-color="#270201"/><stop offset=".86" stop-color="#330805"/><stop offset=".87" stop-color="#48120b"/><stop offset=".88" stop-color="#652014"/><stop offset=".89" stop-color="#8a331f"/><stop offset=".9" stop-color="#b8492c"/><stop offset=".9" stop-color="#d65836"/><stop offset=".9" stop-color="#c95132"/><stop offset=".91" stop-color="#9d3c24"/><stop offset=".93" stop-color="#772919"/><stop offset=".94" stop-color="#581a10"/><stop offset=".95" stop-color="#410e09"/><stop offset=".97" stop-color="#300603"/><stop offset=".98" stop-color="#260100"/><stop offset="1" stop-color="#230000"/></radialGradient><radialGradient id="i" cx="62.91" cy="329.97" fx="62.91" fy="329.97" r="1.38" gradientTransform="matrix(1, 0, 0, 1, 0, 0)" gradientUnits="userSpaceOnUse"><stop offset=".15" stop-color="#fff"/><stop offset=".28" stop-color="#c2c2c2"/><stop offset=".43" stop-color="#878787"/><stop offset=".56" stop-color="#575757"/><stop offset=".69" stop-color="#313131"/><stop offset=".81" stop-color="#161616"/><stop offset=".92" stop-color="#050505"/><stop offset="1" stop-color="#000"/></radialGradient><radialGradient id="j" cx="96.72" cy="310.59" fx="96.72" fy="310.59" r="1.31" xlink:href="#g"/><radialGradient id="k" cx="96.72" cy="310.59" fx="96.72" fy="310.59" r=".66" xlink:href="#h"/><radialGradient id="l" cx="96.72" cy="310.59" fx="96.72" fy="310.59" r=".55" xlink:href="#i"/><radialGradient id="m" cx="143.68" cy="334.54" fx="143.68" fy="334.54" r="1.88" xlink:href="#g"/><radialGradient id="n" cx="143.68" cy="334.54" fx="143.68" fy="334.54" r=".94" xlink:href="#h"/><radialGradient id="o" cx="143.68" cy="334.54" fx="143.68" fy="334.54" r=".78" xlink:href="#i"/><radialGradient id="p" cx="147.66" cy="310.29" fx="147.66" fy="310.29" r="2.56" xlink:href="#g"/><radialGradient id="q" cx="147.66" cy="310.29" fx="147.66" fy="310.29" r="1.28" xlink:href="#h"/><radialGradient id="r" cx="147.66" cy="310.29" fx="147.66" fy="310.29" r="1.07" xlink:href="#i"/><radialGradient id="s" cx="177.57" cy="328.6" fx="177.57" fy="328.6" r=".83" xlink:href="#g"/><radialGradient id="t" cx="177.57" cy="328.6" fx="177.57" fy="328.6" r=".42" xlink:href="#h"/><radialGradient id="u" cx="177.57" cy="328.6" fx="177.57" fy="328.6" r=".35" xlink:href="#i"/><radialGradient id="v" cx="219.11" cy="311.13" fx="219.11" fy="311.13" r="1.87" xlink:href="#g"/><radialGradient id="w" cx="219.11" cy="311.13" fx="219.11" fy="311.13" r=".93" xlink:href="#h"/><radialGradient id="x" cx="219.11" cy="311.13" fx="219.11" fy="311.13" r=".78" xlink:href="#i"/><radialGradient id="y" cx="229.26" cy="330.71" fx="229.26" fy="330.71" r="1.47" xlink:href="#g"/><radialGradient id="a`" cx="229.26" cy="330.71" fx="229.26" fy="330.71" r=".74" xlink:href="#h"/><radialGradient id="aa" cx="229.26" cy="330.71" fx="229.26" fy="330.71" r=".61" xlink:href="#i"/><radialGradient id="ab" cx="265.53" cy="318.19" fx="265.53" fy="318.19" r="1.31" xlink:href="#g"/><radialGradient id="ac" cx="265.53" cy="318.19" fx="265.53" fy="318.19" r=".66" xlink:href="#h"/><radialGradient id="ad" cx="265.53" cy="318.19" fx="265.53" fy="318.19" r=".55" xlink:href="#i"/><radialGradient id="ae" cx="103.81" cy="333.92" fx="103.81" fy="333.92" r="2.25" xlink:href="#g"/><radialGradient id="af" cx="103.81" cy="333.92" fx="103.81" fy="333.92" r="1.12" xlink:href="#h"/><radialGradient id="ag" cx="103.81" cy="333.92" fx="103.81" fy="333.92" r=".94" xlink:href="#i"/></defs><g class="bk"><g id="a"><g id="b"><polygon class="bo" points="249.08 137.14 193.38 199.54 323.32 255.11 249.08 137.14"/></g><g id="c"><polygon class="ah" points="162.86 .13 153.34 106.38 249.08 137.14 162.86 .13"/></g><g id="d"><polyline class="bp" points="153.34 106.38 193.38 199.54 249.08 137.14 153.34 106.38"/></g><g id="e"><polygon class="bo" points="153.34 106.38 5.42 255.11 193.38 199.54 153.34 106.38"/></g><g id="f"><polygon class="bp" points="162.86 .13 153.34 106.38 5.42 255.11 162.86 .13"/></g><line class="bl" x1="162.86" y1=".13" x2="153.34" y2="106.38"/><line class="bl" x1="249.08" y1="137.14" x2="153.34" y2="106.38"/><line class="bl" x1="5.42" y1="255.11" x2="153.34" y2="106.38"/><line class="bl" x1="193.38" y1="199.54" x2="153.34" y2="106.38"/><line class="bl" x1="249.08" y1="137.14" x2="193.38" y2="199.54"/><ellipse class="bm" cx="161.95" cy="322.4" rx="158.95" ry="26.03"/><g><line class="bn" x1="62.91" y1="329.97" x2="64.39" y2="329.24"/><circle class="bn" cx="62.91" cy="329.97" r="1.38"/><circle class="bn" cx="62.91" cy="329.97" r="1.65"/><polyline class="bn" points="62.91 329.97 65.57 335.19 62.91 329.97 60.26 324.76 62.91 329.97 57.7 332.63 62.91 329.97 68.13 327.32 62.91 329.97 63.75 331.17 62.91 329.97 62.08 328.78 62.91 329.97 61.72 330.81 62.91 329.97 64.11 329.14 62.91 329.97 68.11 332.4 62.91 329.97 57.72 327.55 62.91 329.97 60.49 335.17 62.91 329.97 65.34 324.78 62.91 329.97 63.24 333.56 62.91 329.97 62.59 326.39 62.91 329.97 59.33 330.3 62.91 329.97 66.5 329.65 62.91 329.97 65.62 332.15 62.91 329.97 60.21 327.8 62.91 329.97 60.74 332.68 62.91 329.97 65.09 327.27 62.91 329.97 63.58 330.12 62.91 329.97 62.25 329.83 62.91 329.97 62.77 330.64 62.91 329.97 63.06 329.31 62.91 329.97 67.4 330.89 62.91 329.97 58.43 329.06 62.91 329.97 62 334.46 62.91 329.97 63.83 325.49 62.91 329.97 65.36 330.58 62.91 329.97 60.47 329.37 62.91 329.97 62.31 332.42 62.91 329.97 63.52 327.53 62.91 329.97 63.76 333.02 62.91 329.97 62.07 326.93 62.91 329.97 59.87 330.82 62.91 329.97 65.95 329.13 62.91 329.97 65.62 333.2 62.91 329.97 60.21 326.75 62.91 329.97 59.69 332.68 62.91 329.97 66.14 327.27 62.91 329.97 64.41 336.27 62.91 329.97 61.42 323.68 62.91 329.97 56.62 331.47 62.91 329.97 69.21 328.48 62.91 329.97 63.76 330.11 62.91 329.97 62.07 329.83 62.91 329.97 62.77 330.82 62.91 329.97 63.05 329.13 62.91 329.97 67.14 336.54 62.91 329.97 58.69 323.41 62.91 329.97 56.35 334.2 62.91 329.97 69.48 325.75 62.91 329.97 69.66 332.03 62.91 329.97 56.17 327.92 62.91 329.97 60.86 336.72 62.91 329.97 64.97 323.23 62.91 329.97 64.43 333.31 62.91 329.97 61.4 326.64 62.91 329.97 59.58 331.49 62.91 329.97 66.25 328.46"/><circle class="ba" cx="62.91" cy="329.97" r="3.3"/><circle class="bc" cx="62.91" cy="329.97" r="1.65"/><circle class="bi" cx="62.91" cy="329.97" r="1.38"/><polyline class="as" points="62.91 329.97 65.57 335.19 62.91 329.97 60.26 324.76 62.91 329.97 57.7 332.63 62.91 329.97 68.13 327.32 62.91 329.97 63.75 331.17 62.91 329.97 62.08 328.78 62.91 329.97 61.72 330.81 62.91 329.97 64.11 329.14 62.91 329.97 68.11 332.4 62.91 329.97 57.72 327.55 62.91 329.97 60.49 335.17 62.91 329.97 65.34 324.78 62.91 329.97 63.24 333.56 62.91 329.97 62.59 326.39 62.91 329.97 59.33 330.3 62.91 329.97 66.5 329.65 62.91 329.97 65.62 332.15 62.91 329.97 60.21 327.8 62.91 329.97 60.74 332.68 62.91 329.97 65.09 327.27 62.91 329.97 63.58 330.12 62.91 329.97 62.25 329.83 62.91 329.97 62.77 330.64 62.91 329.97 63.06 329.31 62.91 329.97 67.4 330.89 62.91 329.97 58.43 329.06 62.91 329.97 62 334.46 62.91 329.97 63.83 325.49 62.91 329.97 65.36 330.58 62.91 329.97 60.47 329.37 62.91 329.97 62.31 332.42 62.91 329.97 63.52 327.53 62.91 329.97 63.76 333.02 62.91 329.97 62.07 326.93 62.91 329.97 59.87 330.82 62.91 329.97 65.95 329.13 62.91 329.97 65.62 333.2 62.91 329.97 60.21 326.75 62.91 329.97 59.69 332.68 62.91 329.97 66.14 327.27 62.91 329.97 64.41 336.27 62.91 329.97 61.42 323.68 62.91 329.97 56.62 331.47 62.91 329.97 69.21 328.48 62.91 329.97 63.76 330.11 62.91 329.97 62.07 329.83 62.91 329.97 62.77 330.82 62.91 329.97 63.05 329.13 62.91 329.97 67.14 336.54 62.91 329.97 58.69 323.41 62.91 329.97 56.35 334.2 62.91 329.97 69.48 325.75 62.91 329.97 69.66 332.03 62.91 329.97 56.17 327.92 62.91 329.97 60.86 336.72 62.91 329.97 64.97 323.23 62.91 329.97 64.43 333.31 62.91 329.97 61.4 326.64 62.91 329.97 59.58 331.49 62.91 329.97 66.25 328.46"/></g><g><line class="bn" x1="96.72" y1="310.59" x2="97.3" y2="310.29"/><circle class="bn" cx="96.72" cy="310.59" r=".55"/><circle class="bn" cx="96.72" cy="310.59" r=".66"/><polyline class="bn" points="96.72 310.59 97.77 312.66 96.72 310.59 95.66 308.51 96.72 310.59 94.64 311.64 96.72 310.59 98.79 309.53 96.72 310.59 97.05 311.06 96.72 310.59 96.38 310.11 96.72 310.59 96.24 310.92 96.72 310.59 97.19 310.25 96.72 310.59 98.78 311.55 96.72 310.59 94.65 309.62 96.72 310.59 95.75 312.65 96.72 310.59 97.68 308.52 96.72 310.59 96.85 312.01 96.72 310.59 96.59 309.16 96.72 310.59 95.29 310.72 96.72 310.59 98.14 310.46 96.72 310.59 97.79 311.45 96.72 310.59 95.64 309.72 96.72 310.59 95.85 311.66 96.72 310.59 97.58 309.51 96.72 310.59 96.98 310.64 96.72 310.59 96.45 310.53 96.72 310.59 96.66 310.85 96.72 310.59 96.77 310.32 96.72 310.59 98.5 310.95 96.72 310.59 94.93 310.22 96.72 310.59 96.35 312.37 96.72 310.59 97.08 308.8 96.72 310.59 97.69 310.83 96.72 310.59 95.74 310.35 96.72 310.59 96.48 311.56 96.72 310.59 96.96 309.61 96.72 310.59 97.05 311.8 96.72 310.59 96.38 309.38 96.72 310.59 95.51 310.92 96.72 310.59 97.93 310.25 96.72 310.59 97.79 311.87 96.72 310.59 95.64 309.3 96.72 310.59 95.43 311.66 96.72 310.59 98 309.51 96.72 310.59 97.31 313.09 96.72 310.59 96.12 308.08 96.72 310.59 94.21 311.18 96.72 310.59 99.22 309.99 96.72 310.59 97.05 310.64 96.72 310.59 96.38 310.53 96.72 310.59 96.66 310.92 96.72 310.59 96.77 310.25 96.72 310.59 98.4 313.2 96.72 310.59 95.04 307.97 96.72 310.59 94.1 312.27 96.72 310.59 99.33 308.91 96.72 310.59 99.4 311.4 96.72 310.59 94.03 309.77 96.72 310.59 95.9 313.27 96.72 310.59 97.53 307.9 96.72 310.59 97.32 311.91 96.72 310.59 96.11 309.26 96.72 310.59 95.39 311.19 96.72 310.59 98.04 309.98"/><circle class="ao" cx="96.72" cy="310.59" r="1.31"/><circle class="al" cx="96.72" cy="310.59" r=".66"/><circle class="au" cx="96.72" cy="310.59" r=".55"/><polyline class="as" points="96.72 310.59 97.77 312.66 96.72 310.59 95.66 308.51 96.72 310.59 94.64 311.64 96.72 310.59 98.79 309.53 96.72 310.59 97.05 311.06 96.72 310.59 96.38 310.11 96.72 310.59 96.24 310.92 96.72 310.59 97.19 310.25 96.72 310.59 98.78 311.55 96.72 310.59 94.65 309.62 96.72 310.59 95.75 312.65 96.72 310.59 97.68 308.52 96.72 310.59 96.85 312.01 96.72 310.59 96.59 309.16 96.72 310.59 95.29 310.72 96.72 310.59 98.14 310.46 96.72 310.59 97.79 311.45 96.72 310.59 95.64 309.72 96.72 310.59 95.85 311.66 96.72 310.59 97.58 309.51 96.72 310.59 96.98 310.64 96.72 310.59 96.45 310.53 96.72 310.59 96.66 310.85 96.72 310.59 96.77 310.32 96.72 310.59 98.5 310.95 96.72 310.59 94.93 310.22 96.72 310.59 96.35 312.37 96.72 310.59 97.08 308.8 96.72 310.59 97.69 310.83 96.72 310.59 95.74 310.35 96.72 310.59 96.48 311.56 96.72 310.59 96.96 309.61 96.72 310.59 97.05 311.8 96.72 310.59 96.38 309.38 96.72 310.59 95.51 310.92 96.72 310.59 97.93 310.25 96.72 310.59 97.79 311.87 96.72 310.59 95.64 309.3 96.72 310.59 95.43 311.66 96.72 310.59 98 309.51 96.72 310.59 97.31 313.09 96.72 310.59 96.12 308.08 96.72 310.59 94.21 311.18 96.72 310.59 99.22 309.99 96.72 310.59 97.05 310.64 96.72 310.59 96.38 310.53 96.72 310.59 96.66 310.92 96.72 310.59 96.77 310.25 96.72 310.59 98.4 313.2 96.72 310.59 95.04 307.97 96.72 310.59 94.1 312.27 96.72 310.59 99.33 308.91 96.72 310.59 99.4 311.4 96.72 310.59 94.03 309.77 96.72 310.59 95.9 313.27 96.72 310.59 97.53 307.9 96.72 310.59 97.32 311.91 96.72 310.59 96.11 309.26 96.72 310.59 95.39 311.19 96.72 310.59 98.04 309.98"/></g><g><line class="bn" x1="143.68" y1="334.54" x2="144.52" y2="334.12"/><circle class="bn" cx="143.68" cy="334.54" r=".78"/><circle class="bn" cx="143.68" cy="334.54" r=".94"/><polyline class="bn" points="143.68 334.54 145.19 337.5 143.68 334.54 142.17 331.58 143.68 334.54 140.72 336.05 143.68 334.54 146.64 333.03 143.68 334.54 144.16 335.22 143.68 334.54 143.21 333.86 143.68 334.54 143 335.01 143.68 334.54 144.36 334.06 143.68 334.54 146.63 335.92 143.68 334.54 140.73 333.16 143.68 334.54 142.31 337.49 143.68 334.54 145.06 331.59 143.68 334.54 143.87 336.58 143.68 334.54 143.5 332.5 143.68 334.54 141.65 334.72 143.68 334.54 145.72 334.35 143.68 334.54 145.22 335.77 143.68 334.54 142.15 333.3 143.68 334.54 142.45 336.07 143.68 334.54 144.92 333 143.68 334.54 144.06 334.62 143.68 334.54 143.31 334.46 143.68 334.54 143.6 334.92 143.68 334.54 143.76 334.16 143.68 334.54 146.23 335.06 143.68 334.54 141.14 334.02 143.68 334.54 143.16 337.08 143.68 334.54 144.2 331.99 143.68 334.54 145.07 334.88 143.68 334.54 142.29 334.2 143.68 334.54 143.34 335.93 143.68 334.54 144.03 333.15 143.68 334.54 144.16 336.27 143.68 334.54 143.2 332.81 143.68 334.54 141.96 335.02 143.68 334.54 145.41 334.06 143.68 334.54 145.22 336.37 143.68 334.54 142.14 332.71 143.68 334.54 141.85 336.08 143.68 334.54 145.52 333 143.68 334.54 144.53 338.11 143.68 334.54 142.84 330.96 143.68 334.54 140.11 335.39 143.68 334.54 147.26 333.69 143.68 334.54 144.16 334.62 143.68 334.54 143.2 334.46 143.68 334.54 143.6 335.02 143.68 334.54 143.76 334.06 143.68 334.54 146.08 338.27 143.68 334.54 141.28 330.81 143.68 334.54 139.95 336.94 143.68 334.54 147.41 332.14 143.68 334.54 147.51 335.71 143.68 334.54 139.85 333.37 143.68 334.54 142.51 338.37 143.68 334.54 144.85 330.71 143.68 334.54 144.54 336.43 143.68 334.54 142.82 332.64 143.68 334.54 141.79 335.4 143.68 334.54 145.58 333.68"/><circle class="be" cx="143.68" cy="334.54" r="1.88"/><circle class="ap" cx="143.68" cy="334.54" r=".94"/><circle class="ai" cx="143.68" cy="334.54" r=".78"/><polyline class="as" points="143.68 334.54 145.19 337.5 143.68 334.54 142.17 331.58 143.68 334.54 140.72 336.05 143.68 334.54 146.64 333.03 143.68 334.54 144.16 335.22 143.68 334.54 143.21 333.86 143.68 334.54 143 335.01 143.68 334.54 144.36 334.06 143.68 334.54 146.63 335.92 143.68 334.54 140.73 333.16 143.68 334.54 142.31 337.49 143.68 334.54 145.06 331.59 143.68 334.54 143.87 336.58 143.68 334.54 143.5 332.5 143.68 334.54 141.65 334.72 143.68 334.54 145.72 334.35 143.68 334.54 145.22 335.77 143.68 334.54 142.15 333.3 143.68 334.54 142.45 336.07 143.68 334.54 144.92 333 143.68 334.54 144.06 334.62 143.68 334.54 143.31 334.46 143.68 334.54 143.6 334.92 143.68 334.54 143.76 334.16 143.68 334.54 146.23 335.06 143.68 334.54 141.14 334.02 143.68 334.54 143.16 337.08 143.68 334.54 144.2 331.99 143.68 334.54 145.07 334.88 143.68 334.54 142.29 334.2 143.68 334.54 143.34 335.93 143.68 334.54 144.03 333.15 143.68 334.54 144.16 336.27 143.68 334.54 143.2 332.81 143.68 334.54 141.96 335.02 143.68 334.54 145.41 334.06 143.68 334.54 145.22 336.37 143.68 334.54 142.14 332.71 143.68 334.54 141.85 336.08 143.68 334.54 145.52 333 143.68 334.54 144.53 338.11 143.68 334.54 142.84 330.96 143.68 334.54 140.11 335.39 143.68 334.54 147.26 333.69 143.68 334.54 144.16 334.62 143.68 334.54 143.2 334.46 143.68 334.54 143.6 335.02 143.68 334.54 143.76 334.06 143.68 334.54 146.08 338.27 143.68 334.54 141.28 330.81 143.68 334.54 139.95 336.94 143.68 334.54 147.41 332.14 143.68 334.54 147.51 335.71 143.68 334.54 139.85 333.37 143.68 334.54 142.51 338.37 143.68 334.54 144.85 330.71 143.68 334.54 144.54 336.43 143.68 334.54 142.82 332.64 143.68 334.54 141.79 335.4 143.68 334.54 145.58 333.68"/></g><g><line class="bn" x1="147.66" y1="310.29" x2="148.8" y2="309.71"/><circle class="bn" cx="147.66" cy="310.29" r="1.07"/><circle class="bn" cx="147.66" cy="310.29" r="1.28"/><polyline class="bn" points="147.66 310.29 149.72 314.32 147.66 310.29 145.6 306.25 147.66 310.29 143.62 312.35 147.66 310.29 151.7 308.23 147.66 310.29 148.31 311.21 147.66 310.29 147.01 309.36 147.66 310.29 146.74 310.93 147.66 310.29 148.58 309.64 147.66 310.29 151.68 312.16 147.66 310.29 143.64 308.41 147.66 310.29 145.78 314.31 147.66 310.29 149.54 306.26 147.66 310.29 147.91 313.07 147.66 310.29 147.41 307.51 147.66 310.29 144.88 310.54 147.66 310.29 150.44 310.03 147.66 310.29 149.75 311.97 147.66 310.29 145.57 308.6 147.66 310.29 145.98 312.38 147.66 310.29 149.34 308.19 147.66 310.29 148.17 310.4 147.66 310.29 147.15 310.18 147.66 310.29 147.55 310.8 147.66 310.29 147.77 309.77 147.66 310.29 151.13 311 147.66 310.29 144.19 309.58 147.66 310.29 146.95 313.76 147.66 310.29 148.37 306.81 147.66 310.29 149.56 310.75 147.66 310.29 145.77 309.82 147.66 310.29 147.19 312.18 147.66 310.29 148.13 308.39 147.66 310.29 148.32 312.64 147.66 310.29 147.01 307.93 147.66 310.29 145.3 310.94 147.66 310.29 150.02 309.63 147.66 310.29 149.76 312.79 147.66 310.29 145.56 307.79 147.66 310.29 145.16 312.39 147.66 310.29 150.16 308.19 147.66 310.29 148.82 315.16 147.66 310.29 146.5 305.41 147.66 310.29 142.78 311.44 147.66 310.29 152.54 309.13 147.66 310.29 148.31 310.4 147.66 310.29 147.01 310.18 147.66 310.29 147.55 310.94 147.66 310.29 147.77 309.63 147.66 310.29 150.93 315.37 147.66 310.29 144.39 305.2 147.66 310.29 142.57 313.56 147.66 310.29 152.75 307.02 147.66 310.29 152.88 311.88 147.66 310.29 142.44 308.69 147.66 310.29 146.07 315.51 147.66 310.29 149.26 305.06 147.66 310.29 148.84 312.87 147.66 310.29 146.48 307.7 147.66 310.29 145.08 311.46 147.66 310.29 150.24 309.11"/><circle class="ax" cx="147.66" cy="310.29" r="2.56"/><circle class="bg" cx="147.66" cy="310.29" r="1.28"/><circle class="bj" cx="147.66" cy="310.29" r="1.07"/><polyline class="as" points="147.66 310.29 149.72 314.32 147.66 310.29 145.6 306.25 147.66 310.29 143.62 312.35 147.66 310.29 151.7 308.23 147.66 310.29 148.31 311.21 147.66 310.29 147.01 309.36 147.66 310.29 146.74 310.93 147.66 310.29 148.58 309.64 147.66 310.29 151.68 312.16 147.66 310.29 143.64 308.41 147.66 310.29 145.78 314.31 147.66 310.29 149.54 306.26 147.66 310.29 147.91 313.07 147.66 310.29 147.41 307.51 147.66 310.29 144.88 310.54 147.66 310.29 150.44 310.03 147.66 310.29 149.75 311.97 147.66 310.29 145.57 308.6 147.66 310.29 145.98 312.38 147.66 310.29 149.34 308.19 147.66 310.29 148.17 310.4 147.66 310.29 147.15 310.18 147.66 310.29 147.55 310.8 147.66 310.29 147.77 309.77 147.66 310.29 151.13 311 147.66 310.29 144.19 309.58 147.66 310.29 146.95 313.76 147.66 310.29 148.37 306.81 147.66 310.29 149.56 310.75 147.66 310.29 145.77 309.82 147.66 310.29 147.19 312.18 147.66 310.29 148.13 308.39 147.66 310.29 148.32 312.64 147.66 310.29 147.01 307.93 147.66 310.29 145.3 310.94 147.66 310.29 150.02 309.63 147.66 310.29 149.76 312.79 147.66 310.29 145.56 307.79 147.66 310.29 145.16 312.39 147.66 310.29 150.16 308.19 147.66 310.29 148.82 315.16 147.66 310.29 146.5 305.41 147.66 310.29 142.78 311.44 147.66 310.29 152.54 309.13 147.66 310.29 148.31 310.4 147.66 310.29 147.01 310.18 147.66 310.29 147.55 310.94 147.66 310.29 147.77 309.63 147.66 310.29 150.93 315.37 147.66 310.29 144.39 305.2 147.66 310.29 142.57 313.56 147.66 310.29 152.75 307.02 147.66 310.29 152.88 311.88 147.66 310.29 142.44 308.69 147.66 310.29 146.07 315.51 147.66 310.29 149.26 305.06 147.66 310.29 148.84 312.87 147.66 310.29 146.48 307.7 147.66 310.29 145.08 311.46 147.66 310.29 150.24 309.11"/></g><g><line class="bn" x1="177.57" y1="328.6" x2="177.94" y2="328.41"/><circle class="bn" cx="177.57" cy="328.6" r=".35"/><circle class="bn" cx="177.57" cy="328.6" r=".42"/><polyline class="bn" points="177.57 328.6 178.24 329.91 177.57 328.6 176.9 327.28 177.57 328.6 176.25 329.27 177.57 328.6 178.89 327.93 177.57 328.6 177.78 328.9 177.57 328.6 177.36 328.3 177.57 328.6 177.27 328.81 177.57 328.6 177.87 328.39 177.57 328.6 178.88 329.21 177.57 328.6 176.26 327.99 177.57 328.6 176.96 329.91 177.57 328.6 178.18 327.29 177.57 328.6 177.65 329.5 177.57 328.6 177.49 327.69 177.57 328.6 176.66 328.68 177.57 328.6 178.48 328.52 177.57 328.6 178.25 329.15 177.57 328.6 176.89 328.05 177.57 328.6 177.02 329.28 177.57 328.6 178.12 327.92 177.57 328.6 177.74 328.63 177.57 328.6 177.4 328.56 177.57 328.6 177.53 328.77 177.57 328.6 177.61 328.43 177.57 328.6 178.7 328.83 177.57 328.6 176.44 328.37 177.57 328.6 177.34 329.73 177.57 328.6 177.8 327.47 177.57 328.6 178.19 328.75 177.57 328.6 176.95 328.45 177.57 328.6 177.42 329.22 177.57 328.6 177.72 327.98 177.57 328.6 177.78 329.37 177.57 328.6 177.36 327.83 177.57 328.6 176.8 328.81 177.57 328.6 178.34 328.38 177.57 328.6 178.25 329.41 177.57 328.6 176.88 327.78 177.57 328.6 176.75 329.28 177.57 328.6 178.38 327.91 177.57 328.6 177.95 330.19 177.57 328.6 177.19 327.01 177.57 328.6 175.98 328.98 177.57 328.6 179.16 328.22 177.57 328.6 177.78 328.63 177.57 328.6 177.36 328.56 177.57 328.6 177.53 328.81 177.57 328.6 177.6 328.39 177.57 328.6 178.64 330.26 177.57 328.6 176.5 326.94 177.57 328.6 175.91 329.67 177.57 328.6 179.23 327.53 177.57 328.6 179.27 329.12 177.57 328.6 175.87 328.08 177.57 328.6 177.05 330.3 177.57 328.6 178.09 326.9 177.57 328.6 177.95 329.44 177.57 328.6 177.19 327.76 177.57 328.6 176.73 328.98 177.57 328.6 178.41 328.22"/><circle class="aq" cx="177.57" cy="328.6" r=".83"/><circle class="aw" cx="177.57" cy="328.6" r=".42"/><circle class="aj" cx="177.57" cy="328.6" r=".35"/><polyline class="as" points="177.57 328.6 178.24 329.91 177.57 328.6 176.9 327.28 177.57 328.6 176.25 329.27 177.57 328.6 178.89 327.93 177.57 328.6 177.78 328.9 177.57 328.6 177.36 328.3 177.57 328.6 177.27 328.81 177.57 328.6 177.87 328.39 177.57 328.6 178.88 329.21 177.57 328.6 176.26 327.99 177.57 328.6 176.96 329.91 177.57 328.6 178.18 327.29 177.57 328.6 177.65 329.5 177.57 328.6 177.49 327.69 177.57 328.6 176.66 328.68 177.57 328.6 178.48 328.52 177.57 328.6 178.25 329.15 177.57 328.6 176.89 328.05 177.57 328.6 177.02 329.28 177.57 328.6 178.12 327.92 177.57 328.6 177.74 328.63 177.57 328.6 177.4 328.56 177.57 328.6 177.53 328.77 177.57 328.6 177.61 328.43 177.57 328.6 178.7 328.83 177.57 328.6 176.44 328.37 177.57 328.6 177.34 329.73 177.57 328.6 177.8 327.47 177.57 328.6 178.19 328.75 177.57 328.6 176.95 328.45 177.57 328.6 177.42 329.22 177.57 328.6 177.72 327.98 177.57 328.6 177.78 329.37 177.57 328.6 177.36 327.83 177.57 328.6 176.8 328.81 177.57 328.6 178.34 328.38 177.57 328.6 178.25 329.41 177.57 328.6 176.88 327.78 177.57 328.6 176.75 329.28 177.57 328.6 178.38 327.91 177.57 328.6 177.95 330.19 177.57 328.6 177.19 327.01 177.57 328.6 175.98 328.98 177.57 328.6 179.16 328.22 177.57 328.6 177.78 328.63 177.57 328.6 177.36 328.56 177.57 328.6 177.53 328.81 177.57 328.6 177.6 328.39 177.57 328.6 178.64 330.26 177.57 328.6 176.5 326.94 177.57 328.6 175.91 329.67 177.57 328.6 179.23 327.53 177.57 328.6 179.27 329.12 177.57 328.6 175.87 328.08 177.57 328.6 177.05 330.3 177.57 328.6 178.09 326.9 177.57 328.6 177.95 329.44 177.57 328.6 177.19 327.76 177.57 328.6 176.73 328.98 177.57 328.6 178.41 328.22"/></g><g><line class="bn" x1="219.11" y1="311.13" x2="219.94" y2="310.72"/><circle class="bn" cx="219.11" cy="311.13" r=".78"/><circle class="bn" cx="219.11" cy="311.13" r=".93"/><polyline class="bn" points="219.11 311.13 220.61 314.08 219.11 311.13 217.6 308.19 219.11 311.13 216.16 312.64 219.11 311.13 222.05 309.63 219.11 311.13 219.58 311.81 219.11 311.13 218.64 310.46 219.11 311.13 218.43 311.61 219.11 311.13 219.78 310.66 219.11 311.13 222.04 312.5 219.11 311.13 216.17 309.76 219.11 311.13 217.74 314.07 219.11 311.13 220.48 308.2 219.11 311.13 219.29 313.16 219.11 311.13 218.92 309.11 219.11 311.13 217.08 311.32 219.11 311.13 221.14 310.95 219.11 311.13 220.64 312.36 219.11 311.13 217.58 309.9 219.11 311.13 217.88 312.66 219.11 311.13 220.34 309.61 219.11 311.13 219.48 311.21 219.11 311.13 218.73 311.05 219.11 311.13 219.03 311.51 219.11 311.13 219.19 310.76 219.11 311.13 221.64 311.65 219.11 311.13 216.57 310.62 219.11 311.13 218.59 313.67 219.11 311.13 219.63 308.6 219.11 311.13 220.49 311.47 219.11 311.13 217.72 310.79 219.11 311.13 218.77 312.52 219.11 311.13 219.45 309.75 219.11 311.13 219.59 312.85 219.11 311.13 218.63 309.41 219.11 311.13 217.39 311.61 219.11 311.13 220.83 310.65 219.11 311.13 220.64 312.96 219.11 311.13 217.58 309.31 219.11 311.13 217.28 312.66 219.11 311.13 220.93 309.6 219.11 311.13 219.95 314.69 219.11 311.13 218.26 307.57 219.11 311.13 215.55 311.98 219.11 311.13 222.67 310.29 219.11 311.13 219.59 311.21 219.11 311.13 218.63 311.05 219.11 311.13 219.03 311.61 219.11 311.13 219.19 310.66 219.11 311.13 221.5 314.85 219.11 311.13 216.72 307.42 219.11 311.13 215.4 313.52 219.11 311.13 222.82 308.75 219.11 311.13 222.92 312.3 219.11 311.13 215.3 309.97 219.11 311.13 217.94 314.95 219.11 311.13 220.27 307.32 219.11 311.13 219.97 313.02 219.11 311.13 218.25 309.25 219.11 311.13 217.22 311.99 219.11 311.13 220.99 310.27"/><circle class="ar" cx="219.11" cy="311.13" r="1.87"/><circle class="av" cx="219.11" cy="311.13" r=".93"/><circle class="at" cx="219.11" cy="311.13" r=".78"/><polyline class="as" points="219.11 311.13 220.61 314.08 219.11 311.13 217.6 308.19 219.11 311.13 216.16 312.64 219.11 311.13 222.05 309.63 219.11 311.13 219.58 311.81 219.11 311.13 218.64 310.46 219.11 311.13 218.43 311.61 219.11 311.13 219.78 310.66 219.11 311.13 222.04 312.5 219.11 311.13 216.17 309.76 219.11 311.13 217.74 314.07 219.11 311.13 220.48 308.2 219.11 311.13 219.29 313.16 219.11 311.13 218.92 309.11 219.11 311.13 217.08 311.32 219.11 311.13 221.14 310.95 219.11 311.13 220.64 312.36 219.11 311.13 217.58 309.9 219.11 311.13 217.88 312.66 219.11 311.13 220.34 309.61 219.11 311.13 219.48 311.21 219.11 311.13 218.73 311.05 219.11 311.13 219.03 311.51 219.11 311.13 219.19 310.76 219.11 311.13 221.64 311.65 219.11 311.13 216.57 310.62 219.11 311.13 218.59 313.67 219.11 311.13 219.63 308.6 219.11 311.13 220.49 311.47 219.11 311.13 217.72 310.79 219.11 311.13 218.77 312.52 219.11 311.13 219.45 309.75 219.11 311.13 219.59 312.85 219.11 311.13 218.63 309.41 219.11 311.13 217.39 311.61 219.11 311.13 220.83 310.65 219.11 311.13 220.64 312.96 219.11 311.13 217.58 309.31 219.11 311.13 217.28 312.66 219.11 311.13 220.93 309.6 219.11 311.13 219.95 314.69 219.11 311.13 218.26 307.57 219.11 311.13 215.55 311.98 219.11 311.13 222.67 310.29 219.11 311.13 219.59 311.21 219.11 311.13 218.63 311.05 219.11 311.13 219.03 311.61 219.11 311.13 219.19 310.66 219.11 311.13 221.5 314.85 219.11 311.13 216.72 307.42 219.11 311.13 215.4 313.52 219.11 311.13 222.82 308.75 219.11 311.13 222.92 312.3 219.11 311.13 215.3 309.97 219.11 311.13 217.94 314.95 219.11 311.13 220.27 307.32 219.11 311.13 219.97 313.02 219.11 311.13 218.25 309.25 219.11 311.13 217.22 311.99 219.11 311.13 220.99 310.27"/></g><g><line class="bn" x1="229.26" y1="330.71" x2="229.92" y2="330.38"/><circle class="bn" cx="229.26" cy="330.71" r=".61"/><circle class="bn" cx="229.26" cy="330.71" r=".74"/><polyline class="bn" points="229.26 330.71 230.44 333.03 229.26 330.71 228.08 328.39 229.26 330.71 226.94 331.89 229.26 330.71 231.58 329.53 229.26 330.71 229.63 331.24 229.26 330.71 228.89 330.18 229.26 330.71 228.73 331.08 229.26 330.71 229.79 330.34 229.26 330.71 231.57 331.79 229.26 330.71 226.95 329.63 229.26 330.71 228.18 333.02 229.26 330.71 230.34 328.4 229.26 330.71 229.4 332.31 229.26 330.71 229.11 329.11 229.26 330.71 227.66 330.86 229.26 330.71 230.86 330.56 229.26 330.71 230.46 331.68 229.26 330.71 228.06 329.74 229.26 330.71 228.29 331.91 229.26 330.71 230.23 329.51 229.26 330.71 229.55 330.77 229.26 330.71 228.96 330.65 229.26 330.71 229.2 331.01 229.26 330.71 229.32 330.42 229.26 330.71 231.25 331.12 229.26 330.71 227.26 330.3 229.26 330.71 228.85 332.71 229.26 330.71 229.67 328.71 229.26 330.71 230.35 330.98 229.26 330.71 228.17 330.44 229.26 330.71 228.99 331.8 229.26 330.71 229.53 329.62 229.26 330.71 229.64 332.06 229.26 330.71 228.88 329.36 229.26 330.71 227.91 331.09 229.26 330.71 230.61 330.33 229.26 330.71 230.46 332.15 229.26 330.71 228.05 329.27 229.26 330.71 227.82 331.92 229.26 330.71 230.7 329.5 229.26 330.71 229.92 333.51 229.26 330.71 228.59 327.91 229.26 330.71 226.46 331.37 229.26 330.71 232.06 330.05 229.26 330.71 229.63 330.77 229.26 330.71 228.88 330.65 229.26 330.71 229.2 331.09 229.26 330.71 229.32 330.33 229.26 330.71 231.14 333.63 229.26 330.71 227.38 327.79 229.26 330.71 226.34 332.59 229.26 330.71 232.18 328.83 229.26 330.71 232.26 331.63 229.26 330.71 226.26 329.79 229.26 330.71 228.34 333.71 229.26 330.71 230.18 327.71 229.26 330.71 229.94 332.2 229.26 330.71 228.58 329.23 229.26 330.71 227.77 331.39 229.26 330.71 230.74 330.03"/><circle class="bb" cx="229.26" cy="330.71" r="1.47"/><circle class="bf" cx="229.26" cy="330.71" r=".74"/><circle class="ak" cx="229.26" cy="330.71" r=".61"/><polyline class="as" points="229.26 330.71 230.44 333.03 229.26 330.71 228.08 328.39 229.26 330.71 226.94 331.89 229.26 330.71 231.58 329.53 229.26 330.71 229.63 331.24 229.26 330.71 228.89 330.18 229.26 330.71 228.73 331.08 229.26 330.71 229.79 330.34 229.26 330.71 231.57 331.79 229.26 330.71 226.95 329.63 229.26 330.71 228.18 333.02 229.26 330.71 230.34 328.4 229.26 330.71 229.4 332.31 229.26 330.71 229.11 329.11 229.26 330.71 227.66 330.86 229.26 330.71 230.86 330.56 229.26 330.71 230.46 331.68 229.26 330.71 228.06 329.74 229.26 330.71 228.29 331.91 229.26 330.71 230.23 329.51 229.26 330.71 229.55 330.77 229.26 330.71 228.96 330.65 229.26 330.71 229.2 331.01 229.26 330.71 229.32 330.42 229.26 330.71 231.25 331.12 229.26 330.71 227.26 330.3 229.26 330.71 228.85 332.71 229.26 330.71 229.67 328.71 229.26 330.71 230.35 330.98 229.26 330.71 228.17 330.44 229.26 330.71 228.99 331.8 229.26 330.71 229.53 329.62 229.26 330.71 229.64 332.06 229.26 330.71 228.88 329.36 229.26 330.71 227.91 331.09 229.26 330.71 230.61 330.33 229.26 330.71 230.46 332.15 229.26 330.71 228.05 329.27 229.26 330.71 227.82 331.92 229.26 330.71 230.7 329.5 229.26 330.71 229.92 333.51 229.26 330.71 228.59 327.91 229.26 330.71 226.46 331.37 229.26 330.71 232.06 330.05 229.26 330.71 229.63 330.77 229.26 330.71 228.88 330.65 229.26 330.71 229.2 331.09 229.26 330.71 229.32 330.33 229.26 330.71 231.14 333.63 229.26 330.71 227.38 327.79 229.26 330.71 226.34 332.59 229.26 330.71 232.18 328.83 229.26 330.71 232.26 331.63 229.26 330.71 226.26 329.79 229.26 330.71 228.34 333.71 229.26 330.71 230.18 327.71 229.26 330.71 229.94 332.2 229.26 330.71 228.58 329.23 229.26 330.71 227.77 331.39 229.26 330.71 230.74 330.03"/></g><g><line class="bn" x1="265.53" y1="318.19" x2="266.12" y2="317.9"/><circle class="bn" cx="265.53" cy="318.19" r=".55"/><circle class="bn" cx="265.53" cy="318.19" r=".66"/><polyline class="bn" points="265.53 318.19 266.59 320.27 265.53 318.19 264.47 316.12 265.53 318.19 263.46 319.25 265.53 318.19 267.61 317.13 265.53 318.19 265.87 318.67 265.53 318.19 265.2 317.72 265.53 318.19 265.06 318.52 265.53 318.19 266.01 317.86 265.53 318.19 267.6 319.16 265.53 318.19 263.47 317.23 265.53 318.19 264.57 320.26 265.53 318.19 266.5 316.12 265.53 318.19 265.66 319.62 265.53 318.19 265.4 316.76 265.53 318.19 264.11 318.32 265.53 318.19 266.96 318.06 265.53 318.19 266.61 319.06 265.53 318.19 264.46 317.33 265.53 318.19 264.67 319.27 265.53 318.19 266.4 317.12 265.53 318.19 265.8 318.25 265.53 318.19 265.27 318.14 265.53 318.19 265.48 318.46 265.53 318.19 265.59 317.93 265.53 318.19 267.32 318.56 265.53 318.19 263.75 317.83 265.53 318.19 265.17 319.98 265.53 318.19 265.9 316.41 265.53 318.19 266.51 318.43 265.53 318.19 264.56 317.95 265.53 318.19 265.29 319.17 265.53 318.19 265.77 317.22 265.53 318.19 265.87 319.4 265.53 318.19 265.2 316.98 265.53 318.19 264.32 318.53 265.53 318.19 266.74 317.85 265.53 318.19 266.61 319.48 265.53 318.19 264.45 316.91 265.53 318.19 264.25 319.27 265.53 318.19 266.82 317.11 265.53 318.19 266.13 320.7 265.53 318.19 264.94 315.69 265.53 318.19 263.03 318.79 265.53 318.19 268.04 317.6 265.53 318.19 265.87 318.25 265.53 318.19 265.2 318.14 265.53 318.19 265.48 318.53 265.53 318.19 265.59 317.86 265.53 318.19 267.21 320.8 265.53 318.19 263.85 315.58 265.53 318.19 262.92 319.87 265.53 318.19 268.15 316.51 265.53 318.19 268.22 319.01 265.53 318.19 262.85 317.37 265.53 318.19 264.71 320.87 265.53 318.19 266.35 315.51 265.53 318.19 266.14 319.52 265.53 318.19 264.93 316.86 265.53 318.19 264.21 318.8 265.53 318.19 266.86 317.59"/><circle class="an" cx="265.53" cy="318.19" r="1.31"/><circle class="bd" cx="265.53" cy="318.19" r=".66"/><circle class="bh" cx="265.53" cy="318.19" r=".55"/><polyline class="as" points="265.53 318.19 266.59 320.27 265.53 318.19 264.47 316.12 265.53 318.19 263.46 319.25 265.53 318.19 267.61 317.13 265.53 318.19 265.87 318.67 265.53 318.19 265.2 317.72 265.53 318.19 265.06 318.52 265.53 318.19 266.01 317.86 265.53 318.19 267.6 319.16 265.53 318.19 263.47 317.23 265.53 318.19 264.57 320.26 265.53 318.19 266.5 316.12 265.53 318.19 265.66 319.62 265.53 318.19 265.4 316.76 265.53 318.19 264.11 318.32 265.53 318.19 266.96 318.06 265.53 318.19 266.61 319.06 265.53 318.19 264.46 317.33 265.53 318.19 264.67 319.27 265.53 318.19 266.4 317.12 265.53 318.19 265.8 318.25 265.53 318.19 265.27 318.14 265.53 318.19 265.48 318.46 265.53 318.19 265.59 317.93 265.53 318.19 267.32 318.56 265.53 318.19 263.75 317.83 265.53 318.19 265.17 319.98 265.53 318.19 265.9 316.41 265.53 318.19 266.51 318.43 265.53 318.19 264.56 317.95 265.53 318.19 265.29 319.17 265.53 318.19 265.77 317.22 265.53 318.19 265.87 319.4 265.53 318.19 265.2 316.98 265.53 318.19 264.32 318.53 265.53 318.19 266.74 317.85 265.53 318.19 266.61 319.48 265.53 318.19 264.45 316.91 265.53 318.19 264.25 319.27 265.53 318.19 266.82 317.11 265.53 318.19 266.13 320.7 265.53 318.19 264.94 315.69 265.53 318.19 263.03 318.79 265.53 318.19 268.04 317.6 265.53 318.19 265.87 318.25 265.53 318.19 265.2 318.14 265.53 318.19 265.48 318.53 265.53 318.19 265.59 317.86 265.53 318.19 267.21 320.8 265.53 318.19 263.85 315.58 265.53 318.19 262.92 319.87 265.53 318.19 268.15 316.51 265.53 318.19 268.22 319.01 265.53 318.19 262.85 317.37 265.53 318.19 264.71 320.87 265.53 318.19 266.35 315.51 265.53 318.19 266.14 319.52 265.53 318.19 264.93 316.86 265.53 318.19 264.21 318.8 265.53 318.19 266.86 317.59"/></g><g><line class="bn" x1="103.81" y1="333.92" x2="104.82" y2="333.42"/><circle class="bn" cx="103.81" cy="333.92" r=".94"/><circle class="bn" cx="103.81" cy="333.92" r="1.12"/><polyline class="bn" points="103.81 333.92 105.62 337.46 103.81 333.92 102.01 330.38 103.81 333.92 100.27 335.73 103.81 333.92 107.36 332.11 103.81 333.92 104.38 334.73 103.81 333.92 103.25 333.11 103.81 333.92 103 334.49 103.81 333.92 104.62 333.35 103.81 333.92 107.34 335.57 103.81 333.92 100.28 332.27 103.81 333.92 102.16 337.45 103.81 333.92 105.46 330.39 103.81 333.92 104.04 336.36 103.81 333.92 103.59 331.48 103.81 333.92 101.37 334.14 103.81 333.92 106.25 333.7 103.81 333.92 105.65 335.4 103.81 333.92 101.98 332.44 103.81 333.92 102.34 335.76 103.81 333.92 105.29 332.08 103.81 333.92 104.26 334.02 103.81 333.92 103.36 333.82 103.81 333.92 103.72 334.37 103.81 333.92 103.91 333.47 103.81 333.92 106.86 334.54 103.81 333.92 100.77 333.3 103.81 333.92 103.19 336.97 103.81 333.92 104.44 330.87 103.81 333.92 105.48 334.33 103.81 333.92 102.15 333.51 103.81 333.92 103.4 335.58 103.81 333.92 104.22 332.26 103.81 333.92 104.39 335.99 103.81 333.92 103.24 331.85 103.81 333.92 101.75 334.49 103.81 333.92 105.88 333.34 103.81 333.92 105.65 336.11 103.81 333.92 101.97 331.73 103.81 333.92 101.62 335.76 103.81 333.92 106.01 332.08 103.81 333.92 104.83 338.2 103.81 333.92 102.8 329.64 103.81 333.92 99.53 334.93 103.81 333.92 108.09 332.91 103.81 333.92 104.39 334.02 103.81 333.92 103.24 333.82 103.81 333.92 103.72 334.49 103.81 333.92 103.91 333.35 103.81 333.92 106.68 338.38 103.81 333.92 100.94 329.46 103.81 333.92 99.35 336.79 103.81 333.92 108.28 331.05 103.81 333.92 108.4 335.32 103.81 333.92 99.23 332.52 103.81 333.92 102.41 338.5 103.81 333.92 105.21 329.34 103.81 333.92 104.85 336.19 103.81 333.92 102.78 331.65 103.81 333.92 101.55 334.95 103.81 333.92 106.08 332.89"/><circle class="ay" cx="103.81" cy="333.92" r="2.25"/><circle class="b`" cx="103.81" cy="333.92" r="1.12"/><circle class="am" cx="103.81" cy="333.92" r=".94"/><polyline class="as" points="103.81 333.92 105.62 337.46 103.81 333.92 102.01 330.38 103.81 333.92 100.27 335.73 103.81 333.92 107.36 332.11 103.81 333.92 104.38 334.73 103.81 333.92 103.25 333.11 103.81 333.92 103 334.49 103.81 333.92 104.62 333.35 103.81 333.92 107.34 335.57 103.81 333.92 100.28 332.27 103.81 333.92 102.16 337.45 103.81 333.92 105.46 330.39 103.81 333.92 104.04 336.36 103.81 333.92 103.59 331.48 103.81 333.92 101.37 334.14 103.81 333.92 106.25 333.7 103.81 333.92 105.65 335.4 103.81 333.92 101.98 332.44 103.81 333.92 102.34 335.76 103.81 333.92 105.29 332.08 103.81 333.92 104.26 334.02 103.81 333.92 103.36 333.82 103.81 333.92 103.72 334.37 103.81 333.92 103.91 333.47 103.81 333.92 106.86 334.54 103.81 333.92 100.77 333.3 103.81 333.92 103.19 336.97 103.81 333.92 104.44 330.87 103.81 333.92 105.48 334.33 103.81 333.92 102.15 333.51 103.81 333.92 103.4 335.58 103.81 333.92 104.22 332.26 103.81 333.92 104.39 335.99 103.81 333.92 103.24 331.85 103.81 333.92 101.75 334.49 103.81 333.92 105.88 333.34 103.81 333.92 105.65 336.11 103.81 333.92 101.97 331.73 103.81 333.92 101.62 335.76 103.81 333.92 106.01 332.08 103.81 333.92 104.83 338.2 103.81 333.92 102.8 329.64 103.81 333.92 99.53 334.93 103.81 333.92 108.09 332.91 103.81 333.92 104.39 334.02 103.81 333.92 103.24 333.82 103.81 333.92 103.72 334.49 103.81 333.92 103.91 333.35 103.81 333.92 106.68 338.38 103.81 333.92 100.94 329.46 103.81 333.92 99.35 336.79 103.81 333.92 108.28 331.05 103.81 333.92 108.4 335.32 103.81 333.92 99.23 332.52 103.81 333.92 102.41 338.5 103.81 333.92 105.21 329.34 103.81 333.92 104.85 336.19 103.81 333.92 102.78 331.65 103.81 333.92 101.55 334.95 103.81 333.92 106.08 332.89"/></g></g></g></svg>